<svg width="auto" height="auto" viewBox="0 0 798 958" fill="none" xmlns="http://www.w3.org/2000/svg">
<circle cx="399" cy="459" r="240" stroke="#6E7381" stroke-width="2" stroke-dasharray="1 6"/>
<circle cx="399" cy="459" r="360" stroke="#6E7381" stroke-width="2" stroke-dasharray="1 6"/>
<circle cx="399" cy="459" r="66.5" stroke="#6E7381" stroke-width="2" stroke-dasharray="1 6"/>
<g filter="url(#filter0_d_5555_2555)">
<path d="M234 199C234 122.232 296.232 60 373 60C449.768 60 512 122.232 512 199V338H373C296.232 338 234 275.768 234 199Z" fill="#511A75"/>
<rect x="339" y="124" width="68" height="68" rx="34" fill="#794D94"/>
<path d="M389.911 141.951L371.026 138.796C370.655 138.734 370.276 138.754 369.914 138.854C369.552 138.954 369.216 139.131 368.93 139.374C368.643 139.617 368.413 139.919 368.255 140.259C368.097 140.6 368.015 140.971 368.015 141.346L368.015 156.203C368.013 156.888 368.284 157.546 368.767 158.032C369.251 158.518 369.907 158.792 370.593 158.794H381.675L385.958 163.648C386.053 163.75 386.176 163.822 386.311 163.855C386.447 163.888 386.589 163.88 386.721 163.834C386.851 163.783 386.963 163.695 387.042 163.579C387.12 163.464 387.162 163.327 387.161 163.187V158.794H389.484C390.17 158.792 390.826 158.518 391.31 158.032C391.793 157.546 392.064 156.888 392.062 156.203V144.502C392.064 143.891 391.849 143.299 391.455 142.831C391.061 142.364 390.513 142.052 389.911 141.951ZM374.614 150.593C374.342 150.589 374.082 150.478 373.891 150.283C373.699 150.089 373.592 149.827 373.592 149.555C373.592 149.282 373.699 149.021 373.891 148.826C374.082 148.632 374.342 148.521 374.614 148.517C374.887 148.521 375.147 148.632 375.338 148.826C375.53 149.021 375.637 149.282 375.637 149.555C375.637 149.827 375.53 150.089 375.338 150.283C375.147 150.478 374.887 150.589 374.614 150.593ZM380.039 150.593C379.766 150.589 379.506 150.478 379.314 150.283C379.123 150.089 379.016 149.827 379.016 149.555C379.016 149.282 379.123 149.02 379.314 148.826C379.506 148.632 379.766 148.521 380.039 148.517C380.311 148.521 380.571 148.632 380.763 148.826C380.954 149.02 381.061 149.282 381.061 149.555C381.061 149.828 380.954 150.089 380.763 150.284C380.571 150.478 380.311 150.589 380.039 150.593ZM385.463 150.593C385.19 150.589 384.93 150.478 384.739 150.283C384.547 150.089 384.44 149.827 384.44 149.555C384.44 149.282 384.547 149.02 384.739 148.826C384.93 148.632 385.19 148.521 385.463 148.517C385.735 148.521 385.996 148.632 386.187 148.826C386.378 149.02 386.486 149.282 386.486 149.555C386.486 149.828 386.378 150.089 386.187 150.284C385.995 150.478 385.735 150.589 385.463 150.593Z" fill="#FCFCFD"/>
<path d="M366.639 156.202V153.473L356.079 155.329C355.481 155.437 354.938 155.751 354.546 156.217C354.155 156.683 353.938 157.271 353.935 157.88V169.58C353.933 170.266 354.204 170.924 354.687 171.41C355.171 171.896 355.827 172.17 356.513 172.172H358.836V176.565C358.838 176.704 358.882 176.839 358.962 176.952C359.041 177.066 359.153 177.153 359.283 177.202C359.413 177.251 359.555 177.259 359.689 177.227C359.824 177.194 359.946 177.122 360.039 177.019L364.322 172.172H375.404C376.09 172.17 376.746 171.896 377.23 171.41C377.713 170.924 377.984 170.266 377.982 169.58V160.169H370.592C369.542 160.166 368.537 159.746 367.796 159.003C367.055 158.259 366.639 157.252 366.639 156.202ZM360.534 163.971C360.261 163.966 360.001 163.854 359.81 163.659C359.619 163.464 359.512 163.202 359.512 162.929C359.512 162.656 359.619 162.394 359.81 162.199C360.001 162.004 360.261 161.892 360.534 161.888C360.807 161.892 361.067 162.004 361.259 162.199C361.45 162.394 361.557 162.656 361.557 162.929C361.557 163.202 361.45 163.464 361.259 163.659C361.067 163.854 360.807 163.966 360.534 163.971ZM365.958 163.971C365.685 163.966 365.425 163.854 365.234 163.659C365.043 163.464 364.936 163.202 364.936 162.929C364.936 162.656 365.043 162.394 365.234 162.199C365.425 162.004 365.686 161.892 365.958 161.888C366.231 161.892 366.492 162.004 366.683 162.199C366.874 162.394 366.981 162.656 366.981 162.929C366.981 163.202 366.874 163.464 366.683 163.659C366.491 163.854 366.231 163.966 365.958 163.971ZM371.383 161.888C371.656 161.892 371.916 162.004 372.107 162.199C372.298 162.394 372.405 162.656 372.405 162.929C372.405 163.202 372.298 163.464 372.107 163.659C371.916 163.854 371.656 163.966 371.383 163.971C371.11 163.966 370.85 163.854 370.658 163.659C370.467 163.464 370.36 163.202 370.36 162.929C370.36 162.656 370.467 162.394 370.658 162.199C370.85 162.004 371.11 161.892 371.383 161.888Z" fill="#FCFCFD"/>
<path d="M277.985 230.624C277.985 228.992 278.361 227.528 279.113 226.232C279.881 224.936 280.913 223.928 282.209 223.208C283.521 222.472 284.953 222.104 286.505 222.104C288.281 222.104 289.857 222.544 291.233 223.424C292.625 224.288 293.633 225.52 294.257 227.12H290.969C290.537 226.24 289.937 225.584 289.169 225.152C288.401 224.72 287.513 224.504 286.505 224.504C285.401 224.504 284.417 224.752 283.553 225.248C282.689 225.744 282.009 226.456 281.513 227.384C281.033 228.312 280.793 229.392 280.793 230.624C280.793 231.856 281.033 232.936 281.513 233.864C282.009 234.792 282.689 235.512 283.553 236.024C284.417 236.52 285.401 236.768 286.505 236.768C287.513 236.768 288.401 236.552 289.169 236.12C289.937 235.688 290.537 235.032 290.969 234.152H294.257C293.633 235.752 292.625 236.984 291.233 237.848C289.857 238.712 288.281 239.144 286.505 239.144C284.937 239.144 283.505 238.784 282.209 238.064C280.913 237.328 279.881 236.312 279.113 235.016C278.361 233.72 277.985 232.256 277.985 230.624ZM302.715 239.216C301.467 239.216 300.339 238.936 299.331 238.376C298.323 237.8 297.531 237 296.955 235.976C296.379 234.936 296.091 233.736 296.091 232.376C296.091 231.032 296.387 229.84 296.979 228.8C297.571 227.76 298.379 226.96 299.403 226.4C300.427 225.84 301.571 225.56 302.835 225.56C304.099 225.56 305.243 225.84 306.267 226.4C307.291 226.96 308.099 227.76 308.691 228.8C309.283 229.84 309.579 231.032 309.579 232.376C309.579 233.72 309.275 234.912 308.667 235.952C308.059 236.992 307.227 237.8 306.171 238.376C305.131 238.936 303.979 239.216 302.715 239.216ZM302.715 236.84C303.419 236.84 304.075 236.672 304.683 236.336C305.307 236 305.811 235.496 306.195 234.824C306.579 234.152 306.771 233.336 306.771 232.376C306.771 231.416 306.587 230.608 306.219 229.952C305.851 229.28 305.363 228.776 304.755 228.44C304.147 228.104 303.491 227.936 302.787 227.936C302.083 227.936 301.427 228.104 300.819 228.44C300.227 228.776 299.755 229.28 299.403 229.952C299.051 230.608 298.875 231.416 298.875 232.376C298.875 233.8 299.235 234.904 299.955 235.688C300.691 236.456 301.611 236.84 302.715 236.84ZM327.812 225.56C328.852 225.56 329.78 225.776 330.596 226.208C331.428 226.64 332.076 227.28 332.54 228.128C333.02 228.976 333.26 230 333.26 231.2V239H330.548V231.608C330.548 230.424 330.252 229.52 329.66 228.896C329.068 228.256 328.26 227.936 327.236 227.936C326.212 227.936 325.396 228.256 324.788 228.896C324.196 229.52 323.9 230.424 323.9 231.608V239H321.188V231.608C321.188 230.424 320.892 229.52 320.3 228.896C319.708 228.256 318.9 227.936 317.876 227.936C316.852 227.936 316.036 228.256 315.428 228.896C314.836 229.52 314.54 230.424 314.54 231.608V239H311.804V225.776H314.54V227.288C314.988 226.744 315.556 226.32 316.244 226.016C316.932 225.712 317.668 225.56 318.452 225.56C319.508 225.56 320.452 225.784 321.284 226.232C322.116 226.68 322.756 227.328 323.204 228.176C323.604 227.376 324.228 226.744 325.076 226.28C325.924 225.8 326.836 225.56 327.812 225.56ZM352.269 225.56C353.309 225.56 354.237 225.776 355.053 226.208C355.885 226.64 356.533 227.28 356.997 228.128C357.477 228.976 357.717 230 357.717 231.2V239H355.005V231.608C355.005 230.424 354.709 229.52 354.117 228.896C353.525 228.256 352.717 227.936 351.693 227.936C350.669 227.936 349.853 228.256 349.245 228.896C348.653 229.52 348.357 230.424 348.357 231.608V239H345.645V231.608C345.645 230.424 345.349 229.52 344.757 228.896C344.165 228.256 343.357 227.936 342.333 227.936C341.309 227.936 340.493 228.256 339.885 228.896C339.293 229.52 338.997 230.424 338.997 231.608V239H336.261V225.776H338.997V227.288C339.445 226.744 340.013 226.32 340.701 226.016C341.389 225.712 342.125 225.56 342.909 225.56C343.965 225.56 344.909 225.784 345.741 226.232C346.573 226.68 347.213 227.328 347.661 228.176C348.061 227.376 348.685 226.744 349.533 226.28C350.381 225.8 351.293 225.56 352.269 225.56ZM372.695 225.776V239H369.959V237.44C369.527 237.984 368.959 238.416 368.255 238.736C367.567 239.04 366.831 239.192 366.047 239.192C365.007 239.192 364.071 238.976 363.239 238.544C362.423 238.112 361.775 237.472 361.295 236.624C360.831 235.776 360.599 234.752 360.599 233.552V225.776H363.311V233.144C363.311 234.328 363.607 235.24 364.199 235.88C364.791 236.504 365.599 236.816 366.623 236.816C367.647 236.816 368.455 236.504 369.047 235.88C369.655 235.24 369.959 234.328 369.959 233.144V225.776H372.695ZM382.497 225.56C383.537 225.56 384.465 225.776 385.281 226.208C386.113 226.64 386.761 227.28 387.225 228.128C387.689 228.976 387.921 230 387.921 231.2V239H385.209V231.608C385.209 230.424 384.913 229.52 384.321 228.896C383.729 228.256 382.921 227.936 381.897 227.936C380.873 227.936 380.057 228.256 379.449 228.896C378.857 229.52 378.561 230.424 378.561 231.608V239H375.825V225.776H378.561V227.288C379.009 226.744 379.577 226.32 380.265 226.016C380.969 225.712 381.713 225.56 382.497 225.56ZM392.323 224.024C391.827 224.024 391.411 223.856 391.075 223.52C390.739 223.184 390.571 222.768 390.571 222.272C390.571 221.776 390.739 221.36 391.075 221.024C391.411 220.688 391.827 220.52 392.323 220.52C392.803 220.52 393.211 220.688 393.547 221.024C393.883 221.36 394.051 221.776 394.051 222.272C394.051 222.768 393.883 223.184 393.547 223.52C393.211 223.856 392.803 224.024 392.323 224.024ZM393.667 225.776V239H390.931V225.776H393.667ZM395.867 232.376C395.867 231.016 396.139 229.824 396.683 228.8C397.243 227.76 398.011 226.96 398.987 226.4C399.963 225.84 401.083 225.56 402.347 225.56C403.947 225.56 405.267 225.944 406.307 226.712C407.363 227.464 408.075 228.544 408.443 229.952H405.491C405.251 229.296 404.867 228.784 404.339 228.416C403.811 228.048 403.147 227.864 402.347 227.864C401.227 227.864 400.331 228.264 399.659 229.064C399.003 229.848 398.675 230.952 398.675 232.376C398.675 233.8 399.003 234.912 399.659 235.712C400.331 236.512 401.227 236.912 402.347 236.912C403.931 236.912 404.979 236.216 405.491 234.824H408.443C408.059 236.168 407.339 237.24 406.283 238.04C405.227 238.824 403.915 239.216 402.347 239.216C401.083 239.216 399.963 238.936 398.987 238.376C398.011 237.8 397.243 237 396.683 235.976C396.139 234.936 395.867 233.736 395.867 232.376ZM409.777 232.328C409.777 231 410.049 229.824 410.593 228.8C411.153 227.776 411.905 226.984 412.849 226.424C413.809 225.848 414.865 225.56 416.017 225.56C417.057 225.56 417.961 225.768 418.729 226.184C419.513 226.584 420.137 227.088 420.601 227.696V225.776H423.361V239H420.601V237.032C420.137 237.656 419.505 238.176 418.705 238.592C417.905 239.008 416.993 239.216 415.969 239.216C414.833 239.216 413.793 238.928 412.849 238.352C411.905 237.76 411.153 236.944 410.593 235.904C410.049 234.848 409.777 233.656 409.777 232.328ZM420.601 232.376C420.601 231.464 420.409 230.672 420.025 230C419.657 229.328 419.169 228.816 418.561 228.464C417.953 228.112 417.297 227.936 416.593 227.936C415.889 227.936 415.233 228.112 414.625 228.464C414.017 228.8 413.521 229.304 413.137 229.976C412.769 230.632 412.585 231.416 412.585 232.328C412.585 233.24 412.769 234.04 413.137 234.728C413.521 235.416 414.017 235.944 414.625 236.312C415.249 236.664 415.905 236.84 416.593 236.84C417.297 236.84 417.953 236.664 418.561 236.312C419.169 235.96 419.657 235.448 420.025 234.776C420.409 234.088 420.601 233.288 420.601 232.376ZM429.667 228.008V235.328C429.667 235.824 429.779 236.184 430.003 236.408C430.243 236.616 430.643 236.72 431.203 236.72H432.883V239H430.723C429.491 239 428.547 238.712 427.891 238.136C427.235 237.56 426.907 236.624 426.907 235.328V228.008H425.347V225.776H426.907V222.488H429.667V225.776H432.883V228.008H429.667ZM436.317 224.024C435.821 224.024 435.405 223.856 435.069 223.52C434.733 223.184 434.565 222.768 434.565 222.272C434.565 221.776 434.733 221.36 435.069 221.024C435.405 220.688 435.821 220.52 436.317 220.52C436.797 220.52 437.205 220.688 437.541 221.024C437.877 221.36 438.045 221.776 438.045 222.272C438.045 222.768 437.877 223.184 437.541 223.52C437.205 223.856 436.797 224.024 436.317 224.024ZM437.661 225.776V239H434.925V225.776H437.661ZM446.509 239.216C445.261 239.216 444.133 238.936 443.125 238.376C442.117 237.8 441.325 237 440.749 235.976C440.173 234.936 439.885 233.736 439.885 232.376C439.885 231.032 440.181 229.84 440.773 228.8C441.365 227.76 442.173 226.96 443.197 226.4C444.221 225.84 445.365 225.56 446.629 225.56C447.893 225.56 449.037 225.84 450.061 226.4C451.085 226.96 451.893 227.76 452.485 228.8C453.077 229.84 453.373 231.032 453.373 232.376C453.373 233.72 453.069 234.912 452.461 235.952C451.853 236.992 451.021 237.8 449.965 238.376C448.925 238.936 447.773 239.216 446.509 239.216ZM446.509 236.84C447.213 236.84 447.869 236.672 448.477 236.336C449.101 236 449.605 235.496 449.989 234.824C450.373 234.152 450.565 233.336 450.565 232.376C450.565 231.416 450.381 230.608 450.013 229.952C449.645 229.28 449.157 228.776 448.549 228.44C447.941 228.104 447.285 227.936 446.581 227.936C445.877 227.936 445.221 228.104 444.613 228.44C444.021 228.776 443.549 229.28 443.197 229.952C442.845 230.608 442.669 231.416 442.669 232.376C442.669 233.8 443.029 234.904 443.749 235.688C444.485 236.456 445.405 236.84 446.509 236.84ZM462.27 225.56C463.31 225.56 464.238 225.776 465.054 226.208C465.886 226.64 466.534 227.28 466.998 228.128C467.462 228.976 467.694 230 467.694 231.2V239H464.982V231.608C464.982 230.424 464.686 229.52 464.094 228.896C463.502 228.256 462.694 227.936 461.67 227.936C460.646 227.936 459.83 228.256 459.222 228.896C458.63 229.52 458.334 230.424 458.334 231.608V239H455.598V225.776H458.334V227.288C458.782 226.744 459.35 226.32 460.038 226.016C460.742 225.712 461.486 225.56 462.27 225.56ZM308.273 268L306.209 265.936C305.409 266.736 304.537 267.336 303.593 267.736C302.649 268.12 301.593 268.312 300.425 268.312C299.241 268.312 298.193 268.104 297.281 267.688C296.369 267.272 295.665 266.68 295.169 265.912C294.673 265.128 294.425 264.224 294.425 263.2C294.425 262.048 294.753 261.024 295.409 260.128C296.065 259.216 297.041 258.496 298.337 257.968C297.873 257.408 297.545 256.888 297.353 256.408C297.161 255.912 297.065 255.368 297.065 254.776C297.065 254.04 297.249 253.384 297.617 252.808C298.001 252.232 298.545 251.776 299.249 251.44C299.953 251.104 300.769 250.936 301.697 250.936C302.641 250.936 303.441 251.12 304.097 251.488C304.769 251.84 305.265 252.328 305.585 252.952C305.921 253.576 306.057 254.272 305.993 255.04H303.257C303.273 254.448 303.129 253.992 302.825 253.672C302.521 253.336 302.105 253.168 301.577 253.168C301.049 253.168 300.617 253.328 300.281 253.648C299.961 253.952 299.801 254.328 299.801 254.776C299.801 255.208 299.921 255.64 300.161 256.072C300.417 256.488 300.857 257.032 301.481 257.704L305.897 262.096L307.601 259.288H310.553L308.393 262.984L307.793 263.968L311.849 268H308.273ZM300.425 265.984C301.929 265.984 303.257 265.368 304.409 264.136L299.993 259.696C298.105 260.448 297.161 261.584 297.161 263.104C297.161 263.92 297.465 264.608 298.073 265.168C298.681 265.712 299.465 265.984 300.425 265.984ZM318.006 259.624C318.006 257.992 318.382 256.528 319.134 255.232C319.902 253.936 320.934 252.928 322.23 252.208C323.542 251.472 324.974 251.104 326.526 251.104C328.302 251.104 329.878 251.544 331.254 252.424C332.646 253.288 333.654 254.52 334.278 256.12H330.99C330.558 255.24 329.958 254.584 329.19 254.152C328.422 253.72 327.534 253.504 326.526 253.504C325.422 253.504 324.438 253.752 323.574 254.248C322.71 254.744 322.03 255.456 321.534 256.384C321.054 257.312 320.814 258.392 320.814 259.624C320.814 260.856 321.054 261.936 321.534 262.864C322.03 263.792 322.71 264.512 323.574 265.024C324.438 265.52 325.422 265.768 326.526 265.768C327.534 265.768 328.422 265.552 329.19 265.12C329.958 264.688 330.558 264.032 330.99 263.152H334.278C333.654 264.752 332.646 265.984 331.254 266.848C329.878 267.712 328.302 268.144 326.526 268.144C324.958 268.144 323.526 267.784 322.23 267.064C320.934 266.328 319.902 265.312 319.134 264.016C318.382 262.72 318.006 261.256 318.006 259.624ZM342.736 268.216C341.488 268.216 340.36 267.936 339.352 267.376C338.344 266.8 337.552 266 336.976 264.976C336.4 263.936 336.112 262.736 336.112 261.376C336.112 260.032 336.408 258.84 337 257.8C337.592 256.76 338.4 255.96 339.424 255.4C340.448 254.84 341.592 254.56 342.856 254.56C344.12 254.56 345.264 254.84 346.288 255.4C347.312 255.96 348.12 256.76 348.712 257.8C349.304 258.84 349.6 260.032 349.6 261.376C349.6 262.72 349.296 263.912 348.688 264.952C348.08 265.992 347.248 266.8 346.192 267.376C345.152 267.936 344 268.216 342.736 268.216ZM342.736 265.84C343.44 265.84 344.096 265.672 344.704 265.336C345.328 265 345.832 264.496 346.216 263.824C346.6 263.152 346.792 262.336 346.792 261.376C346.792 260.416 346.608 259.608 346.24 258.952C345.872 258.28 345.384 257.776 344.776 257.44C344.168 257.104 343.512 256.936 342.808 256.936C342.104 256.936 341.448 257.104 340.84 257.44C340.248 257.776 339.776 258.28 339.424 258.952C339.072 259.608 338.896 260.416 338.896 261.376C338.896 262.8 339.256 263.904 339.976 264.688C340.712 265.456 341.632 265.84 342.736 265.84ZM358.497 254.56C359.537 254.56 360.465 254.776 361.281 255.208C362.113 255.64 362.761 256.28 363.225 257.128C363.689 257.976 363.921 259 363.921 260.2V268H361.209V260.608C361.209 259.424 360.913 258.52 360.321 257.896C359.729 257.256 358.921 256.936 357.897 256.936C356.873 256.936 356.057 257.256 355.449 257.896C354.857 258.52 354.561 259.424 354.561 260.608V268H351.825V254.776H354.561V256.288C355.009 255.744 355.577 255.32 356.265 255.016C356.969 254.712 357.713 254.56 358.497 254.56ZM372.475 257.008H370.027V268H367.267V257.008H365.707V254.776H367.267V253.84C367.267 252.32 367.667 251.216 368.467 250.528C369.283 249.824 370.555 249.472 372.283 249.472V251.752C371.451 251.752 370.867 251.912 370.531 252.232C370.195 252.536 370.027 253.072 370.027 253.84V254.776H372.475V257.008ZM375.811 253.024C375.315 253.024 374.899 252.856 374.563 252.52C374.227 252.184 374.059 251.768 374.059 251.272C374.059 250.776 374.227 250.36 374.563 250.024C374.899 249.688 375.315 249.52 375.811 249.52C376.291 249.52 376.699 249.688 377.035 250.024C377.371 250.36 377.539 250.776 377.539 251.272C377.539 251.768 377.371 252.184 377.035 252.52C376.699 252.856 376.291 253.024 375.811 253.024ZM377.155 254.776V268H374.419V254.776H377.155ZM379.355 261.328C379.355 260 379.627 258.824 380.171 257.8C380.731 256.776 381.483 255.984 382.427 255.424C383.387 254.848 384.451 254.56 385.619 254.56C386.483 254.56 387.331 254.752 388.163 255.136C389.011 255.504 389.683 256 390.179 256.624V250.24H392.939V268H390.179V266.008C389.731 266.648 389.107 267.176 388.307 267.592C387.523 268.008 386.619 268.216 385.595 268.216C384.443 268.216 383.387 267.928 382.427 267.352C381.483 266.76 380.731 265.944 380.171 264.904C379.627 263.848 379.355 262.656 379.355 261.328ZM390.179 261.376C390.179 260.464 389.987 259.672 389.603 259C389.235 258.328 388.747 257.816 388.139 257.464C387.531 257.112 386.875 256.936 386.171 256.936C385.467 256.936 384.811 257.112 384.203 257.464C383.595 257.8 383.099 258.304 382.715 258.976C382.347 259.632 382.163 260.416 382.163 261.328C382.163 262.24 382.347 263.04 382.715 263.728C383.099 264.416 383.595 264.944 384.203 265.312C384.827 265.664 385.483 265.84 386.171 265.84C386.875 265.84 387.531 265.664 388.139 265.312C388.747 264.96 389.235 264.448 389.603 263.776C389.987 263.088 390.179 262.288 390.179 261.376ZM408.173 261.064C408.173 261.56 408.141 262.008 408.077 262.408H397.973C398.053 263.464 398.445 264.312 399.149 264.952C399.853 265.592 400.717 265.912 401.741 265.912C403.213 265.912 404.253 265.296 404.861 264.064H407.813C407.413 265.28 406.685 266.28 405.629 267.064C404.589 267.832 403.293 268.216 401.741 268.216C400.477 268.216 399.341 267.936 398.333 267.376C397.341 266.8 396.557 266 395.981 264.976C395.421 263.936 395.141 262.736 395.141 261.376C395.141 260.016 395.413 258.824 395.957 257.8C396.517 256.76 397.293 255.96 398.285 255.4C399.293 254.84 400.445 254.56 401.741 254.56C402.989 254.56 404.101 254.832 405.077 255.376C406.053 255.92 406.813 256.688 407.357 257.68C407.901 258.656 408.173 259.784 408.173 261.064ZM405.317 260.2C405.301 259.192 404.941 258.384 404.237 257.776C403.533 257.168 402.661 256.864 401.621 256.864C400.677 256.864 399.869 257.168 399.197 257.776C398.525 258.368 398.125 259.176 397.997 260.2H405.317ZM417.058 254.56C418.098 254.56 419.026 254.776 419.842 255.208C420.674 255.64 421.322 256.28 421.786 257.128C422.25 257.976 422.482 259 422.482 260.2V268H419.77V260.608C419.77 259.424 419.474 258.52 418.882 257.896C418.29 257.256 417.482 256.936 416.458 256.936C415.434 256.936 414.618 257.256 414.01 257.896C413.418 258.52 413.122 259.424 413.122 260.608V268H410.386V254.776H413.122V256.288C413.57 255.744 414.138 255.32 414.826 255.016C415.53 254.712 416.274 254.56 417.058 254.56ZM424.58 261.376C424.58 260.016 424.852 258.824 425.396 257.8C425.956 256.76 426.724 255.96 427.7 255.4C428.676 254.84 429.796 254.56 431.06 254.56C432.66 254.56 433.98 254.944 435.02 255.712C436.076 256.464 436.788 257.544 437.156 258.952H434.204C433.964 258.296 433.58 257.784 433.052 257.416C432.524 257.048 431.86 256.864 431.06 256.864C429.94 256.864 429.044 257.264 428.372 258.064C427.716 258.848 427.388 259.952 427.388 261.376C427.388 262.8 427.716 263.912 428.372 264.712C429.044 265.512 429.94 265.912 431.06 265.912C432.644 265.912 433.692 265.216 434.204 263.824H437.156C436.772 265.168 436.052 266.24 434.996 267.04C433.94 267.824 432.628 268.216 431.06 268.216C429.796 268.216 428.676 267.936 427.7 267.376C426.724 266.8 425.956 266 425.396 264.976C424.852 263.936 424.58 262.736 424.58 261.376ZM451.522 261.064C451.522 261.56 451.49 262.008 451.426 262.408H441.322C441.402 263.464 441.794 264.312 442.498 264.952C443.202 265.592 444.066 265.912 445.09 265.912C446.562 265.912 447.602 265.296 448.21 264.064H451.162C450.762 265.28 450.034 266.28 448.978 267.064C447.938 267.832 446.642 268.216 445.09 268.216C443.826 268.216 442.69 267.936 441.682 267.376C440.69 266.8 439.906 266 439.33 264.976C438.77 263.936 438.49 262.736 438.49 261.376C438.49 260.016 438.762 258.824 439.306 257.8C439.866 256.76 440.642 255.96 441.634 255.4C442.642 254.84 443.794 254.56 445.09 254.56C446.338 254.56 447.45 254.832 448.426 255.376C449.402 255.92 450.162 256.688 450.706 257.68C451.25 258.656 451.522 259.784 451.522 261.064ZM448.666 260.2C448.65 259.192 448.29 258.384 447.586 257.776C446.882 257.168 446.01 256.864 444.97 256.864C444.026 256.864 443.218 257.168 442.546 257.776C441.874 258.368 441.474 259.176 441.346 260.2H448.666Z" fill="#FCFCFD"/>
</g>
<path d="M0 401C0 324.232 62.2324 262 139 262C215.768 262 278 324.232 278 401V540H139C62.2324 540 0 477.768 0 401Z" fill="#FF634A"/>
<rect x="105" y="326" width="68" height="68" rx="34" fill="#FCFCFD" fill-opacity="0.2"/>
<g clip-path="url(#clip0_5555_2555)">
<path d="M139 347.097C141.138 347.097 142.871 345.364 142.871 343.226C142.871 341.088 141.138 339.355 139 339.355C136.862 339.355 135.129 341.088 135.129 343.226C135.129 345.364 136.862 347.097 139 347.097Z" fill="#FCFCFD"/>
<path d="M145.28 344.647C144.63 347.521 142.066 349.678 138.998 349.678C135.931 349.678 133.367 347.521 132.716 344.647C130.409 345.162 128.676 347.218 128.676 349.678V354.839C128.676 356.262 129.834 357.42 131.256 357.42C132.679 357.42 133.837 356.262 133.837 354.839V352.259H144.159V354.839C144.159 356.262 145.317 357.42 146.74 357.42C148.163 357.42 149.321 356.262 149.321 354.839V349.678C149.321 347.218 147.588 345.162 145.28 344.647Z" fill="#FCFCFD"/>
<path d="M158.999 370.89C157.148 369.821 154.781 370.455 153.712 372.307C152.643 374.158 153.277 376.526 155.129 377.594C156.98 378.663 159.433 378.029 160.502 376.178C161.571 374.326 160.851 371.959 158.999 370.89Z" fill="#FCFCFD"/>
<path d="M156.638 362.077L152.169 359.497C150.937 358.785 149.355 359.209 148.643 360.441C147.932 361.673 148.356 363.255 149.588 363.966L151.823 365.257L146.662 374.196L144.427 372.906C143.195 372.195 141.613 372.618 140.902 373.851C140.19 375.083 140.614 376.664 141.846 377.376L146.316 379.956C148.447 381.187 151.094 380.714 152.693 378.973C150.529 376.972 149.943 373.674 151.477 371.017C153.011 368.36 156.161 367.218 158.975 368.092C159.683 365.836 158.769 363.308 156.638 362.077Z" fill="#FCFCFD"/>
<path d="M124.289 372.307C123.22 370.456 120.852 369.821 119.001 370.89C117.15 371.959 116.429 374.327 117.498 376.178C118.567 378.03 121.02 378.664 122.872 377.595C124.723 376.526 125.358 374.159 124.289 372.307Z" fill="#FCFCFD"/>
<path d="M137.098 373.851C136.386 372.619 134.804 372.195 133.572 372.906L131.338 374.196L126.176 365.257L128.411 363.967C129.643 363.255 130.067 361.674 129.356 360.442C128.645 359.209 127.063 358.786 125.831 359.497L121.361 362.078C119.23 363.308 118.316 365.837 119.025 368.092C121.839 367.219 124.988 368.36 126.522 371.017C128.056 373.674 127.47 376.972 125.307 378.973C126.905 380.714 129.552 381.187 131.683 379.957L136.153 377.376C137.385 376.665 137.809 375.083 137.098 373.851Z" fill="#FCFCFD"/>
</g>
<path d="M41.9199 424.32V426.552H37.4799V441H34.7439V426.552H30.2799V424.32H41.9199ZM56.3308 434.064C56.3308 434.56 56.2988 435.008 56.2348 435.408H46.1308C46.2108 436.464 46.6028 437.312 47.3068 437.952C48.0108 438.592 48.8748 438.912 49.8988 438.912C51.3708 438.912 52.4108 438.296 53.0188 437.064H55.9708C55.5708 438.28 54.8428 439.28 53.7868 440.064C52.7468 440.832 51.4508 441.216 49.8988 441.216C48.6348 441.216 47.4988 440.936 46.4908 440.376C45.4988 439.8 44.7148 439 44.1388 437.976C43.5788 436.936 43.2988 435.736 43.2988 434.376C43.2988 433.016 43.5708 431.824 44.1148 430.8C44.6748 429.76 45.4508 428.96 46.4428 428.4C47.4508 427.84 48.6028 427.56 49.8988 427.56C51.1468 427.56 52.2588 427.832 53.2348 428.376C54.2108 428.92 54.9708 429.688 55.5148 430.68C56.0588 431.656 56.3308 432.784 56.3308 434.064ZM53.4748 433.2C53.4588 432.192 53.0988 431.384 52.3948 430.776C51.6908 430.168 50.8188 429.864 49.7788 429.864C48.8348 429.864 48.0268 430.168 47.3548 430.776C46.6828 431.368 46.2828 432.176 46.1548 433.2H53.4748ZM57.6313 434.328C57.6313 433 57.9033 431.824 58.4473 430.8C59.0073 429.776 59.7593 428.984 60.7033 428.424C61.6633 427.848 62.7193 427.56 63.8713 427.56C64.9113 427.56 65.8153 427.768 66.5833 428.184C67.3673 428.584 67.9913 429.088 68.4553 429.696V427.776H71.2153V441H68.4553V439.032C67.9913 439.656 67.3593 440.176 66.5593 440.592C65.7593 441.008 64.8473 441.216 63.8233 441.216C62.6873 441.216 61.6473 440.928 60.7033 440.352C59.7593 439.76 59.0073 438.944 58.4473 437.904C57.9033 436.848 57.6313 435.656 57.6313 434.328ZM68.4553 434.376C68.4553 433.464 68.2633 432.672 67.8793 432C67.5113 431.328 67.0233 430.816 66.4153 430.464C65.8073 430.112 65.1513 429.936 64.4473 429.936C63.7433 429.936 63.0873 430.112 62.4793 430.464C61.8713 430.8 61.3753 431.304 60.9913 431.976C60.6233 432.632 60.4393 433.416 60.4393 434.328C60.4393 435.24 60.6233 436.04 60.9913 436.728C61.3753 437.416 61.8713 437.944 62.4793 438.312C63.1033 438.664 63.7593 438.84 64.4473 438.84C65.1513 438.84 65.8073 438.664 66.4153 438.312C67.0233 437.96 67.5113 437.448 67.8793 436.776C68.2633 436.088 68.4553 435.288 68.4553 434.376ZM90.3369 427.56C91.3769 427.56 92.3049 427.776 93.1209 428.208C93.9529 428.64 94.6009 429.28 95.0649 430.128C95.5449 430.976 95.7849 432 95.7849 433.2V441H93.0729V433.608C93.0729 432.424 92.7769 431.52 92.1849 430.896C91.5929 430.256 90.7849 429.936 89.7609 429.936C88.7369 429.936 87.9209 430.256 87.3129 430.896C86.7209 431.52 86.4249 432.424 86.4249 433.608V441H83.7129V433.608C83.7129 432.424 83.4169 431.52 82.8249 430.896C82.2329 430.256 81.4249 429.936 80.4009 429.936C79.3769 429.936 78.5609 430.256 77.9529 430.896C77.3609 431.52 77.0649 432.424 77.0649 433.608V441H74.3289V427.776H77.0649V429.288C77.5129 428.744 78.0809 428.32 78.7689 428.016C79.4569 427.712 80.1929 427.56 80.9769 427.56C82.0329 427.56 82.9769 427.784 83.8089 428.232C84.6409 428.68 85.2809 429.328 85.7289 430.176C86.1289 429.376 86.7529 428.744 87.6009 428.28C88.4489 427.8 89.3609 427.56 90.3369 427.56ZM101.786 437.712L98.8824 444.336H97.1064L98.8104 437.712H101.786ZM114.899 424.32C116.675 424.32 118.227 424.664 119.555 425.352C120.899 426.024 121.931 427 122.651 428.28C123.387 429.544 123.755 431.024 123.755 432.72C123.755 434.416 123.387 435.888 122.651 437.136C121.931 438.384 120.899 439.344 119.555 440.016C118.227 440.672 116.675 441 114.899 441H109.451V424.32H114.899ZM114.899 438.768C116.851 438.768 118.347 438.24 119.387 437.184C120.427 436.128 120.947 434.64 120.947 432.72C120.947 430.784 120.427 429.272 119.387 428.184C118.347 427.096 116.851 426.552 114.899 426.552H112.187V438.768H114.899ZM137.891 427.776L129.779 447.216H126.947L129.635 440.784L124.427 427.776H127.475L131.195 437.856L135.059 427.776H137.891ZM146.148 427.56C147.188 427.56 148.116 427.776 148.932 428.208C149.764 428.64 150.412 429.28 150.876 430.128C151.34 430.976 151.572 432 151.572 433.2V441H148.86V433.608C148.86 432.424 148.564 431.52 147.972 430.896C147.38 430.256 146.572 429.936 145.548 429.936C144.524 429.936 143.708 430.256 143.1 430.896C142.508 431.52 142.212 432.424 142.212 433.608V441H139.476V427.776H142.212V429.288C142.66 428.744 143.228 428.32 143.916 428.016C144.62 427.712 145.364 427.56 146.148 427.56ZM153.67 434.328C153.67 433 153.942 431.824 154.486 430.8C155.046 429.776 155.798 428.984 156.742 428.424C157.702 427.848 158.758 427.56 159.91 427.56C160.95 427.56 161.854 427.768 162.622 428.184C163.406 428.584 164.03 429.088 164.494 429.696V427.776H167.254V441H164.494V439.032C164.03 439.656 163.398 440.176 162.598 440.592C161.798 441.008 160.886 441.216 159.862 441.216C158.726 441.216 157.686 440.928 156.742 440.352C155.798 439.76 155.046 438.944 154.486 437.904C153.942 436.848 153.67 435.656 153.67 434.328ZM164.494 434.376C164.494 433.464 164.302 432.672 163.918 432C163.55 431.328 163.062 430.816 162.454 430.464C161.846 430.112 161.19 429.936 160.486 429.936C159.782 429.936 159.126 430.112 158.518 430.464C157.91 430.8 157.414 431.304 157.03 431.976C156.662 432.632 156.478 433.416 156.478 434.328C156.478 435.24 156.662 436.04 157.03 436.728C157.414 437.416 157.91 437.944 158.518 438.312C159.142 438.664 159.798 438.84 160.486 438.84C161.19 438.84 161.846 438.664 162.454 438.312C163.062 437.96 163.55 437.448 163.918 436.776C164.302 436.088 164.494 435.288 164.494 434.376ZM186.375 427.56C187.415 427.56 188.343 427.776 189.159 428.208C189.991 428.64 190.639 429.28 191.103 430.128C191.583 430.976 191.823 432 191.823 433.2V441H189.111V433.608C189.111 432.424 188.815 431.52 188.223 430.896C187.631 430.256 186.823 429.936 185.799 429.936C184.775 429.936 183.959 430.256 183.351 430.896C182.759 431.52 182.463 432.424 182.463 433.608V441H179.751V433.608C179.751 432.424 179.455 431.52 178.863 430.896C178.271 430.256 177.463 429.936 176.439 429.936C175.415 429.936 174.599 430.256 173.991 430.896C173.399 431.52 173.103 432.424 173.103 433.608V441H170.367V427.776H173.103V429.288C173.551 428.744 174.119 428.32 174.807 428.016C175.495 427.712 176.231 427.56 177.015 427.56C178.071 427.56 179.015 427.784 179.847 428.232C180.679 428.68 181.319 429.328 181.767 430.176C182.167 429.376 182.791 428.744 183.639 428.28C184.487 427.8 185.399 427.56 186.375 427.56ZM196.217 426.024C195.721 426.024 195.305 425.856 194.969 425.52C194.633 425.184 194.465 424.768 194.465 424.272C194.465 423.776 194.633 423.36 194.969 423.024C195.305 422.688 195.721 422.52 196.217 422.52C196.697 422.52 197.105 422.688 197.441 423.024C197.777 423.36 197.945 423.776 197.945 424.272C197.945 424.768 197.777 425.184 197.441 425.52C197.105 425.856 196.697 426.024 196.217 426.024ZM197.561 427.776V441H194.825V427.776H197.561ZM199.761 434.376C199.761 433.016 200.033 431.824 200.577 430.8C201.137 429.76 201.905 428.96 202.881 428.4C203.857 427.84 204.977 427.56 206.241 427.56C207.841 427.56 209.161 427.944 210.201 428.712C211.257 429.464 211.969 430.544 212.337 431.952H209.385C209.145 431.296 208.761 430.784 208.233 430.416C207.705 430.048 207.041 429.864 206.241 429.864C205.121 429.864 204.225 430.264 203.553 431.064C202.897 431.848 202.569 432.952 202.569 434.376C202.569 435.8 202.897 436.912 203.553 437.712C204.225 438.512 205.121 438.912 206.241 438.912C207.825 438.912 208.873 438.216 209.385 436.824H212.337C211.953 438.168 211.233 439.24 210.177 440.04C209.121 440.824 207.809 441.216 206.241 441.216C204.977 441.216 203.857 440.936 202.881 440.376C201.905 439.8 201.137 439 200.577 437.976C200.033 436.936 199.761 435.736 199.761 434.376ZM219.384 441.216C218.344 441.216 217.408 441.032 216.576 440.664C215.76 440.28 215.112 439.768 214.632 439.128C214.152 438.472 213.896 437.744 213.864 436.944H216.696C216.744 437.504 217.008 437.976 217.488 438.36C217.984 438.728 218.6 438.912 219.336 438.912C220.104 438.912 220.696 438.768 221.112 438.48C221.544 438.176 221.76 437.792 221.76 437.328C221.76 436.832 221.52 436.464 221.04 436.224C220.576 435.984 219.832 435.72 218.808 435.432C217.816 435.16 217.008 434.896 216.384 434.64C215.76 434.384 215.216 433.992 214.752 433.464C214.304 432.936 214.08 432.24 214.08 431.376C214.08 430.672 214.288 430.032 214.704 429.456C215.12 428.864 215.712 428.4 216.48 428.064C217.264 427.728 218.16 427.56 219.168 427.56C220.672 427.56 221.88 427.944 222.792 428.712C223.72 429.464 224.216 430.496 224.28 431.808H221.544C221.496 431.216 221.256 430.744 220.824 430.392C220.392 430.04 219.808 429.864 219.072 429.864C218.352 429.864 217.8 430 217.416 430.272C217.032 430.544 216.84 430.904 216.84 431.352C216.84 431.704 216.968 432 217.224 432.24C217.48 432.48 217.792 432.672 218.16 432.816C218.528 432.944 219.072 433.112 219.792 433.32C220.752 433.576 221.536 433.84 222.144 434.112C222.768 434.368 223.304 434.752 223.752 435.264C224.2 435.776 224.432 436.456 224.448 437.304C224.448 438.056 224.24 438.728 223.824 439.32C223.408 439.912 222.816 440.376 222.048 440.712C221.296 441.048 220.408 441.216 219.384 441.216ZM245.566 441L243.502 438.936C242.702 439.736 241.83 440.336 240.886 440.736C239.942 441.12 238.886 441.312 237.718 441.312C236.534 441.312 235.486 441.104 234.574 440.688C233.662 440.272 232.958 439.68 232.462 438.912C231.966 438.128 231.718 437.224 231.718 436.2C231.718 435.048 232.046 434.024 232.702 433.128C233.358 432.216 234.334 431.496 235.63 430.968C235.166 430.408 234.838 429.888 234.646 429.408C234.454 428.912 234.358 428.368 234.358 427.776C234.358 427.04 234.542 426.384 234.91 425.808C235.294 425.232 235.838 424.776 236.542 424.44C237.246 424.104 238.062 423.936 238.99 423.936C239.934 423.936 240.734 424.12 241.39 424.488C242.062 424.84 242.558 425.328 242.878 425.952C243.214 426.576 243.35 427.272 243.286 428.04H240.55C240.566 427.448 240.422 426.992 240.118 426.672C239.814 426.336 239.398 426.168 238.87 426.168C238.342 426.168 237.91 426.328 237.574 426.648C237.254 426.952 237.094 427.328 237.094 427.776C237.094 428.208 237.214 428.64 237.454 429.072C237.71 429.488 238.15 430.032 238.774 430.704L243.19 435.096L244.894 432.288H247.846L245.686 435.984L245.086 436.968L249.142 441H245.566ZM237.718 438.984C239.222 438.984 240.55 438.368 241.702 437.136L237.286 432.696C235.398 433.448 234.454 434.584 234.454 436.104C234.454 436.92 234.758 437.608 235.366 438.168C235.974 438.712 236.758 438.984 237.718 438.984ZM96.8202 461.624C96.8202 459.992 97.1962 458.528 97.9482 457.232C98.7162 455.936 99.7482 454.928 101.044 454.208C102.356 453.472 103.788 453.104 105.34 453.104C107.116 453.104 108.692 453.544 110.068 454.424C111.46 455.288 112.468 456.52 113.092 458.12H109.804C109.372 457.24 108.772 456.584 108.004 456.152C107.236 455.72 106.348 455.504 105.34 455.504C104.236 455.504 103.252 455.752 102.388 456.248C101.524 456.744 100.844 457.456 100.348 458.384C99.8682 459.312 99.6282 460.392 99.6282 461.624C99.6282 462.856 99.8682 463.936 100.348 464.864C100.844 465.792 101.524 466.512 102.388 467.024C103.252 467.52 104.236 467.768 105.34 467.768C106.348 467.768 107.236 467.552 108.004 467.12C108.772 466.688 109.372 466.032 109.804 465.152H113.092C112.468 466.752 111.46 467.984 110.068 468.848C108.692 469.712 107.116 470.144 105.34 470.144C103.772 470.144 102.34 469.784 101.044 469.064C99.7482 468.328 98.7162 467.312 97.9482 466.016C97.1962 464.72 96.8202 463.256 96.8202 461.624ZM127.791 456.776V470H125.055V468.44C124.623 468.984 124.055 469.416 123.351 469.736C122.663 470.04 121.927 470.192 121.143 470.192C120.103 470.192 119.167 469.976 118.335 469.544C117.519 469.112 116.871 468.472 116.391 467.624C115.927 466.776 115.695 465.752 115.695 464.552V456.776H118.407V464.144C118.407 465.328 118.703 466.24 119.295 466.88C119.887 467.504 120.695 467.816 121.719 467.816C122.743 467.816 123.551 467.504 124.143 466.88C124.751 466.24 125.055 465.328 125.055 464.144V456.776H127.791ZM133.657 452.24V470H130.921V452.24H133.657ZM139.961 459.008V466.328C139.961 466.824 140.073 467.184 140.297 467.408C140.537 467.616 140.937 467.72 141.497 467.72H143.177V470H141.017C139.785 470 138.841 469.712 138.185 469.136C137.529 468.56 137.201 467.624 137.201 466.328V459.008H135.641V456.776H137.201V453.488H139.961V456.776H143.177V459.008H139.961ZM157.194 456.776V470H154.458V468.44C154.026 468.984 153.458 469.416 152.754 469.736C152.066 470.04 151.33 470.192 150.546 470.192C149.506 470.192 148.57 469.976 147.738 469.544C146.922 469.112 146.274 468.472 145.794 467.624C145.33 466.776 145.098 465.752 145.098 464.552V456.776H147.81V464.144C147.81 465.328 148.106 466.24 148.698 466.88C149.29 467.504 150.098 467.816 151.122 467.816C152.146 467.816 152.954 467.504 153.546 466.88C154.154 466.24 154.458 465.328 154.458 464.144V456.776H157.194ZM163.06 458.696C163.46 458.024 163.988 457.504 164.644 457.136C165.316 456.752 166.108 456.56 167.02 456.56V459.392H166.324C165.252 459.392 164.436 459.664 163.876 460.208C163.332 460.752 163.06 461.696 163.06 463.04V470H160.324V456.776H163.06V458.696ZM181.175 463.064C181.175 463.56 181.143 464.008 181.079 464.408H170.975C171.055 465.464 171.447 466.312 172.151 466.952C172.855 467.592 173.719 467.912 174.743 467.912C176.215 467.912 177.255 467.296 177.863 466.064H180.815C180.415 467.28 179.687 468.28 178.631 469.064C177.591 469.832 176.295 470.216 174.743 470.216C173.479 470.216 172.343 469.936 171.335 469.376C170.343 468.8 169.559 468 168.983 466.976C168.423 465.936 168.143 464.736 168.143 463.376C168.143 462.016 168.415 460.824 168.959 459.8C169.519 458.76 170.295 457.96 171.287 457.4C172.295 456.84 173.447 456.56 174.743 456.56C175.991 456.56 177.103 456.832 178.079 457.376C179.055 457.92 179.815 458.688 180.359 459.68C180.903 460.656 181.175 461.784 181.175 463.064ZM178.319 462.2C178.303 461.192 177.943 460.384 177.239 459.776C176.535 459.168 175.663 458.864 174.623 458.864C173.679 458.864 172.871 459.168 172.199 459.776C171.527 460.368 171.127 461.176 170.999 462.2H178.319Z" fill="#FCFCFD"/>
<path d="M520 371H659C735.768 371 798 433.232 798 510C798 586.768 735.768 649 659 649C582.232 649 520 586.768 520 510V371Z" fill="#FF634A"/>
<rect x="625" y="435" width="68" height="68" rx="34" fill="#FCFCFD" fill-opacity="0.2"/>
<path d="M655.808 477.096C655.913 478.918 657.315 480.343 658.999 480.343C660.684 480.343 662.086 478.918 662.187 477.096L662.305 475.064C662.369 473.955 661.99 472.882 661.273 472.124C660.662 471.475 659.853 471.115 658.999 471.115C658.146 471.115 657.337 471.475 656.726 472.124C656.004 472.882 655.63 473.955 655.694 475.064L655.808 477.096Z" fill="#FCFCFD"/>
<path d="M663.947 482.27L660.532 481.247C660.532 481.247 660.532 481.247 660.527 481.247C660.043 481.403 659.532 481.485 659.002 481.485C658.468 481.485 657.957 481.403 657.473 481.243C657.468 481.243 657.468 481.243 657.468 481.243L654.057 482.27C651.92 482.919 650.559 484.722 650.747 486.658L650.925 488.48C653.208 489.398 656.048 489.9 659.002 489.9C661.957 489.9 664.797 489.398 667.08 488.48L667.258 486.658C667.445 484.722 666.084 482.919 663.947 482.27Z" fill="#FCFCFD"/>
<path d="M668.792 477.585C668.879 479.101 670.043 480.293 671.441 480.293C672.838 480.293 674.002 479.101 674.089 477.585L674.189 475.818C674.244 474.887 673.929 473.987 673.326 473.352C672.82 472.814 672.148 472.517 671.441 472.517C670.733 472.517 670.066 472.814 669.555 473.352C668.952 473.987 668.642 474.887 668.692 475.818L668.792 477.585Z" fill="#FCFCFD"/>
<path d="M675.712 482.11L672.781 481.229C672.356 481.361 671.909 481.434 671.443 481.434C670.982 481.434 670.534 481.361 670.11 481.229L667.479 482.019C668.781 483.297 669.479 485.033 669.301 486.859L669.151 488.38C669.895 488.462 670.662 488.498 671.443 488.498C673.968 488.498 676.397 488.078 678.356 487.302L678.507 485.795C678.662 484.17 677.516 482.654 675.712 482.11Z" fill="#FCFCFD"/>
<path d="M646.557 481.434C646.092 481.434 645.644 481.361 645.219 481.229L642.283 482.11C640.484 482.654 639.338 484.17 639.494 485.795L639.64 487.302C641.603 488.078 644.032 488.498 646.557 488.498C647.334 488.498 648.096 488.457 648.85 488.38L648.699 486.859C648.521 485.028 649.219 483.293 650.521 482.019L647.891 481.229C647.466 481.361 647.019 481.434 646.557 481.434Z" fill="#FCFCFD"/>
<path d="M643.91 477.585C643.997 479.101 645.161 480.293 646.559 480.293C647.956 480.293 649.116 479.101 649.202 477.585L649.307 475.818C649.358 474.887 649.047 473.987 648.444 473.352C647.933 472.814 647.266 472.517 646.559 472.517C645.851 472.517 645.18 472.814 644.673 473.352C644.07 473.987 643.755 474.887 643.81 475.818L643.91 477.585Z" fill="#FCFCFD"/>
<path d="M668.278 472.142C667.35 473.119 666.857 474.496 666.936 475.917L666.998 477.017C666.14 477.193 665.128 477.325 663.922 477.413C663.936 477.343 663.94 477.273 663.944 477.202L664.063 475.165C664.151 473.577 663.601 472.028 662.554 470.915C661.604 469.911 660.341 469.357 658.999 469.357C657.657 469.357 656.394 469.911 655.448 470.91C654.396 472.019 653.846 473.568 653.934 475.165L654.049 477.198C654.053 477.273 654.058 477.343 654.071 477.413C652.865 477.325 651.853 477.193 650.995 477.017L651.061 475.913C651.14 474.496 650.648 473.119 649.719 472.142C648.874 471.253 647.757 470.761 646.573 470.756C647.264 467.509 652.562 464.983 658.999 464.983C665.436 464.983 670.734 467.509 671.424 470.756C670.241 470.761 669.123 471.253 668.278 472.142Z" fill="#FCFCFD"/>
<path d="M658.999 464.043C662.813 464.043 665.905 459.696 665.905 455.293C665.905 450.89 662.813 448.1 658.999 448.1C655.186 448.1 652.094 450.89 652.094 455.293C652.094 459.696 655.186 464.043 658.999 464.043Z" fill="#FCFCFD"/>
<path d="M587.654 547.792H593.294V550H584.918V533.32H587.654V547.792ZM607.222 543.064C607.222 543.56 607.19 544.008 607.126 544.408H597.022C597.102 545.464 597.494 546.312 598.198 546.952C598.902 547.592 599.766 547.912 600.79 547.912C602.262 547.912 603.302 547.296 603.91 546.064H606.862C606.462 547.28 605.734 548.28 604.678 549.064C603.638 549.832 602.342 550.216 600.79 550.216C599.526 550.216 598.39 549.936 597.382 549.376C596.39 548.8 595.606 548 595.03 546.976C594.47 545.936 594.19 544.736 594.19 543.376C594.19 542.016 594.462 540.824 595.006 539.8C595.566 538.76 596.342 537.96 597.334 537.4C598.342 536.84 599.494 536.56 600.79 536.56C602.038 536.56 603.15 536.832 604.126 537.376C605.102 537.92 605.862 538.688 606.406 539.68C606.95 540.656 607.222 541.784 607.222 543.064ZM604.366 542.2C604.35 541.192 603.99 540.384 603.286 539.776C602.582 539.168 601.71 538.864 600.67 538.864C599.726 538.864 598.918 539.168 598.246 539.776C597.574 540.368 597.174 541.176 597.046 542.2H604.366ZM608.523 543.328C608.523 542 608.795 540.824 609.339 539.8C609.899 538.776 610.651 537.984 611.595 537.424C612.555 536.848 613.611 536.56 614.763 536.56C615.803 536.56 616.707 536.768 617.475 537.184C618.259 537.584 618.883 538.088 619.347 538.696V536.776H622.107V550H619.347V548.032C618.883 548.656 618.251 549.176 617.451 549.592C616.651 550.008 615.739 550.216 614.715 550.216C613.579 550.216 612.539 549.928 611.595 549.352C610.651 548.76 609.899 547.944 609.339 546.904C608.795 545.848 608.523 544.656 608.523 543.328ZM619.347 543.376C619.347 542.464 619.155 541.672 618.771 541C618.403 540.328 617.915 539.816 617.307 539.464C616.699 539.112 616.043 538.936 615.339 538.936C614.635 538.936 613.979 539.112 613.371 539.464C612.763 539.8 612.267 540.304 611.883 540.976C611.515 541.632 611.331 542.416 611.331 543.328C611.331 544.24 611.515 545.04 611.883 545.728C612.267 546.416 612.763 546.944 613.371 547.312C613.995 547.664 614.651 547.84 615.339 547.84C616.043 547.84 616.699 547.664 617.307 547.312C617.915 546.96 618.403 546.448 618.771 545.776C619.155 545.088 619.347 544.288 619.347 543.376ZM624.308 543.328C624.308 542 624.58 540.824 625.124 539.8C625.684 538.776 626.436 537.984 627.38 537.424C628.34 536.848 629.404 536.56 630.572 536.56C631.436 536.56 632.284 536.752 633.116 537.136C633.964 537.504 634.636 538 635.132 538.624V532.24H637.892V550H635.132V548.008C634.684 548.648 634.06 549.176 633.26 549.592C632.476 550.008 631.572 550.216 630.548 550.216C629.396 550.216 628.34 549.928 627.38 549.352C626.436 548.76 625.684 547.944 625.124 546.904C624.58 545.848 624.308 544.656 624.308 543.328ZM635.132 543.376C635.132 542.464 634.94 541.672 634.556 541C634.188 540.328 633.7 539.816 633.092 539.464C632.484 539.112 631.828 538.936 631.124 538.936C630.42 538.936 629.764 539.112 629.156 539.464C628.548 539.8 628.052 540.304 627.668 540.976C627.3 541.632 627.116 542.416 627.116 543.328C627.116 544.24 627.3 545.04 627.668 545.728C628.052 546.416 628.548 546.944 629.156 547.312C629.78 547.664 630.436 547.84 631.124 547.84C631.828 547.84 632.484 547.664 633.092 547.312C633.7 546.96 634.188 546.448 634.556 545.776C634.94 545.088 635.132 544.288 635.132 543.376ZM653.126 543.064C653.126 543.56 653.094 544.008 653.03 544.408H642.926C643.006 545.464 643.398 546.312 644.102 546.952C644.806 547.592 645.67 547.912 646.694 547.912C648.166 547.912 649.206 547.296 649.814 546.064H652.766C652.366 547.28 651.638 548.28 650.582 549.064C649.542 549.832 648.246 550.216 646.694 550.216C645.43 550.216 644.294 549.936 643.286 549.376C642.294 548.8 641.51 548 640.934 546.976C640.374 545.936 640.094 544.736 640.094 543.376C640.094 542.016 640.366 540.824 640.91 539.8C641.47 538.76 642.246 537.96 643.238 537.4C644.246 536.84 645.398 536.56 646.694 536.56C647.942 536.56 649.054 536.832 650.03 537.376C651.006 537.92 651.766 538.688 652.31 539.68C652.854 540.656 653.126 541.784 653.126 543.064ZM650.27 542.2C650.254 541.192 649.894 540.384 649.19 539.776C648.486 539.168 647.614 538.864 646.574 538.864C645.63 538.864 644.822 539.168 644.15 539.776C643.478 540.368 643.078 541.176 642.95 542.2H650.27ZM658.075 538.696C658.475 538.024 659.003 537.504 659.659 537.136C660.331 536.752 661.123 536.56 662.035 536.56V539.392H661.339C660.267 539.392 659.451 539.664 658.891 540.208C658.347 540.752 658.075 541.696 658.075 543.04V550H655.339V536.776H658.075V538.696ZM668.87 550.216C667.83 550.216 666.894 550.032 666.062 549.664C665.246 549.28 664.598 548.768 664.118 548.128C663.638 547.472 663.382 546.744 663.35 545.944H666.182C666.23 546.504 666.494 546.976 666.974 547.36C667.47 547.728 668.086 547.912 668.822 547.912C669.59 547.912 670.182 547.768 670.598 547.48C671.03 547.176 671.246 546.792 671.246 546.328C671.246 545.832 671.006 545.464 670.526 545.224C670.062 544.984 669.318 544.72 668.294 544.432C667.302 544.16 666.494 543.896 665.87 543.64C665.246 543.384 664.702 542.992 664.238 542.464C663.79 541.936 663.566 541.24 663.566 540.376C663.566 539.672 663.774 539.032 664.19 538.456C664.606 537.864 665.198 537.4 665.966 537.064C666.75 536.728 667.646 536.56 668.654 536.56C670.158 536.56 671.366 536.944 672.278 537.712C673.206 538.464 673.702 539.496 673.766 540.808H671.03C670.982 540.216 670.742 539.744 670.31 539.392C669.878 539.04 669.294 538.864 668.558 538.864C667.838 538.864 667.286 539 666.902 539.272C666.518 539.544 666.326 539.904 666.326 540.352C666.326 540.704 666.454 541 666.71 541.24C666.966 541.48 667.278 541.672 667.646 541.816C668.014 541.944 668.558 542.112 669.278 542.32C670.238 542.576 671.022 542.84 671.63 543.112C672.254 543.368 672.79 543.752 673.238 544.264C673.686 544.776 673.918 545.456 673.934 546.304C673.934 547.056 673.726 547.728 673.31 548.32C672.894 548.912 672.302 549.376 671.534 549.712C670.782 550.048 669.894 550.216 668.87 550.216ZM683.25 536.56C684.258 536.56 685.154 536.776 685.938 537.208C686.738 537.64 687.362 538.28 687.81 539.128C688.274 539.976 688.506 541 688.506 542.2V550H685.794V542.608C685.794 541.424 685.498 540.52 684.906 539.896C684.314 539.256 683.506 538.936 682.482 538.936C681.458 538.936 680.642 539.256 680.034 539.896C679.442 540.52 679.146 541.424 679.146 542.608V550H676.41V532.24H679.146V538.312C679.61 537.752 680.194 537.32 680.898 537.016C681.618 536.712 682.402 536.56 683.25 536.56ZM692.908 535.024C692.412 535.024 691.996 534.856 691.66 534.52C691.324 534.184 691.156 533.768 691.156 533.272C691.156 532.776 691.324 532.36 691.66 532.024C691.996 531.688 692.412 531.52 692.908 531.52C693.388 531.52 693.796 531.688 694.132 532.024C694.468 532.36 694.636 532.776 694.636 533.272C694.636 533.768 694.468 534.184 694.132 534.52C693.796 534.856 693.388 535.024 692.908 535.024ZM694.252 536.776V550H691.516V536.776H694.252ZM700.1 538.72C700.564 538.112 701.196 537.6 701.996 537.184C702.796 536.768 703.7 536.56 704.708 536.56C705.86 536.56 706.908 536.848 707.852 537.424C708.812 537.984 709.564 538.776 710.108 539.8C710.652 540.824 710.924 542 710.924 543.328C710.924 544.656 710.652 545.848 710.108 546.904C709.564 547.944 708.812 548.76 707.852 549.352C706.908 549.928 705.86 550.216 704.708 550.216C703.7 550.216 702.804 550.016 702.02 549.616C701.236 549.2 700.596 548.688 700.1 548.08V556.288H697.364V536.776H700.1V538.72ZM708.14 543.328C708.14 542.416 707.948 541.632 707.564 540.976C707.196 540.304 706.7 539.8 706.076 539.464C705.468 539.112 704.812 538.936 704.108 538.936C703.42 538.936 702.764 539.112 702.14 539.464C701.532 539.816 701.036 540.328 700.652 541C700.284 541.672 700.1 542.464 700.1 543.376C700.1 544.288 700.284 545.088 700.652 545.776C701.036 546.448 701.532 546.96 702.14 547.312C702.764 547.664 703.42 547.84 704.108 547.84C704.812 547.84 705.468 547.664 706.076 547.312C706.7 546.944 707.196 546.416 707.564 545.728C707.948 545.04 708.14 544.24 708.14 543.328ZM731.792 550L729.728 547.936C728.928 548.736 728.056 549.336 727.112 549.736C726.168 550.12 725.112 550.312 723.944 550.312C722.76 550.312 721.712 550.104 720.8 549.688C719.888 549.272 719.184 548.68 718.688 547.912C718.192 547.128 717.944 546.224 717.944 545.2C717.944 544.048 718.272 543.024 718.928 542.128C719.584 541.216 720.56 540.496 721.856 539.968C721.392 539.408 721.064 538.888 720.872 538.408C720.68 537.912 720.584 537.368 720.584 536.776C720.584 536.04 720.768 535.384 721.136 534.808C721.52 534.232 722.064 533.776 722.768 533.44C723.472 533.104 724.288 532.936 725.216 532.936C726.16 532.936 726.96 533.12 727.616 533.488C728.288 533.84 728.784 534.328 729.104 534.952C729.44 535.576 729.576 536.272 729.512 537.04H726.776C726.792 536.448 726.648 535.992 726.344 535.672C726.04 535.336 725.624 535.168 725.096 535.168C724.568 535.168 724.136 535.328 723.8 535.648C723.48 535.952 723.32 536.328 723.32 536.776C723.32 537.208 723.44 537.64 723.68 538.072C723.936 538.488 724.376 539.032 725 539.704L729.416 544.096L731.12 541.288H734.072L731.912 544.984L731.312 545.968L735.368 550H731.792ZM723.944 547.984C725.448 547.984 726.776 547.368 727.928 546.136L723.512 541.696C721.624 542.448 720.68 543.584 720.68 545.104C720.68 545.92 720.984 546.608 721.592 547.168C722.2 547.712 722.984 547.984 723.944 547.984ZM614.635 572.376C614.635 571.016 614.907 569.824 615.451 568.8C616.011 567.76 616.779 566.96 617.755 566.4C618.731 565.84 619.851 565.56 621.115 565.56C622.715 565.56 624.035 565.944 625.075 566.712C626.131 567.464 626.843 568.544 627.211 569.952H624.259C624.019 569.296 623.635 568.784 623.107 568.416C622.579 568.048 621.915 567.864 621.115 567.864C619.995 567.864 619.099 568.264 618.427 569.064C617.771 569.848 617.443 570.952 617.443 572.376C617.443 573.8 617.771 574.912 618.427 575.712C619.099 576.512 619.995 576.912 621.115 576.912C622.699 576.912 623.747 576.216 624.259 574.824H627.211C626.827 576.168 626.107 577.24 625.051 578.04C623.995 578.824 622.683 579.216 621.115 579.216C619.851 579.216 618.731 578.936 617.755 578.376C616.779 577.8 616.011 577 615.451 575.976C614.907 574.936 614.635 573.736 614.635 572.376ZM636.298 565.56C637.306 565.56 638.202 565.776 638.986 566.208C639.786 566.64 640.41 567.28 640.858 568.128C641.322 568.976 641.554 570 641.554 571.2V579H638.842V571.608C638.842 570.424 638.546 569.52 637.954 568.896C637.362 568.256 636.554 567.936 635.53 567.936C634.506 567.936 633.69 568.256 633.082 568.896C632.49 569.52 632.194 570.424 632.194 571.608V579H629.458V561.24H632.194V567.312C632.658 566.752 633.242 566.32 633.946 566.016C634.666 565.712 635.45 565.56 636.298 565.56ZM643.651 572.328C643.651 571 643.923 569.824 644.467 568.8C645.027 567.776 645.779 566.984 646.723 566.424C647.683 565.848 648.739 565.56 649.891 565.56C650.931 565.56 651.835 565.768 652.603 566.184C653.387 566.584 654.011 567.088 654.475 567.696V565.776H657.235V579H654.475V577.032C654.011 577.656 653.379 578.176 652.579 578.592C651.779 579.008 650.867 579.216 649.843 579.216C648.707 579.216 647.667 578.928 646.723 578.352C645.779 577.76 645.027 576.944 644.467 575.904C643.923 574.848 643.651 573.656 643.651 572.328ZM654.475 572.376C654.475 571.464 654.283 570.672 653.899 570C653.531 569.328 653.043 568.816 652.435 568.464C651.827 568.112 651.171 567.936 650.467 567.936C649.763 567.936 649.107 568.112 648.499 568.464C647.891 568.8 647.395 569.304 647.011 569.976C646.643 570.632 646.459 571.416 646.459 572.328C646.459 573.24 646.643 574.04 647.011 574.728C647.395 575.416 647.891 575.944 648.499 576.312C649.123 576.664 649.779 576.84 650.467 576.84C651.171 576.84 651.827 576.664 652.435 576.312C653.043 575.96 653.531 575.448 653.899 574.776C654.283 574.088 654.475 573.288 654.475 572.376ZM667.021 565.56C668.061 565.56 668.989 565.776 669.805 566.208C670.637 566.64 671.285 567.28 671.749 568.128C672.213 568.976 672.445 570 672.445 571.2V579H669.733V571.608C669.733 570.424 669.437 569.52 668.845 568.896C668.253 568.256 667.445 567.936 666.421 567.936C665.397 567.936 664.581 568.256 663.973 568.896C663.381 569.52 663.085 570.424 663.085 571.608V579H660.349V565.776H663.085V567.288C663.533 566.744 664.101 566.32 664.789 566.016C665.493 565.712 666.237 565.56 667.021 565.56ZM680.783 565.56C681.807 565.56 682.711 565.768 683.495 566.184C684.295 566.584 684.919 567.088 685.367 567.696V565.776H688.127V579.216C688.127 580.432 687.871 581.512 687.359 582.456C686.847 583.416 686.103 584.168 685.127 584.712C684.167 585.256 683.015 585.528 681.671 585.528C679.879 585.528 678.391 585.104 677.207 584.256C676.023 583.424 675.351 582.288 675.191 580.848H677.903C678.111 581.536 678.551 582.088 679.223 582.504C679.911 582.936 680.727 583.152 681.671 583.152C682.775 583.152 683.663 582.816 684.335 582.144C685.023 581.472 685.367 580.496 685.367 579.216V577.008C684.903 577.632 684.271 578.16 683.471 578.592C682.687 579.008 681.791 579.216 680.783 579.216C679.631 579.216 678.575 578.928 677.615 578.352C676.671 577.76 675.919 576.944 675.359 575.904C674.815 574.848 674.543 573.656 674.543 572.328C674.543 571 674.815 569.824 675.359 568.8C675.919 567.776 676.671 566.984 677.615 566.424C678.575 565.848 679.631 565.56 680.783 565.56ZM685.367 572.376C685.367 571.464 685.175 570.672 684.791 570C684.423 569.328 683.935 568.816 683.327 568.464C682.719 568.112 682.063 567.936 681.359 567.936C680.655 567.936 679.999 568.112 679.391 568.464C678.783 568.8 678.287 569.304 677.903 569.976C677.535 570.632 677.351 571.416 677.351 572.328C677.351 573.24 677.535 574.04 677.903 574.728C678.287 575.416 678.783 575.944 679.391 576.312C680.015 576.664 680.671 576.84 681.359 576.84C682.063 576.84 682.719 576.664 683.327 576.312C683.935 575.96 684.423 575.448 684.791 574.776C685.175 574.088 685.367 573.288 685.367 572.376ZM703.361 572.064C703.361 572.56 703.329 573.008 703.265 573.408H693.161C693.241 574.464 693.633 575.312 694.337 575.952C695.041 576.592 695.905 576.912 696.929 576.912C698.401 576.912 699.441 576.296 700.049 575.064H703.001C702.601 576.28 701.873 577.28 700.817 578.064C699.777 578.832 698.481 579.216 696.929 579.216C695.665 579.216 694.529 578.936 693.521 578.376C692.529 577.8 691.745 577 691.169 575.976C690.609 574.936 690.329 573.736 690.329 572.376C690.329 571.016 690.601 569.824 691.145 568.8C691.705 567.76 692.481 566.96 693.473 566.4C694.481 565.84 695.633 565.56 696.929 565.56C698.177 565.56 699.289 565.832 700.265 566.376C701.241 566.92 702.001 567.688 702.545 568.68C703.089 569.656 703.361 570.784 703.361 572.064ZM700.505 571.2C700.489 570.192 700.129 569.384 699.425 568.776C698.721 568.168 697.849 567.864 696.809 567.864C695.865 567.864 695.057 568.168 694.385 568.776C693.713 569.368 693.313 570.176 693.185 571.2H700.505Z" fill="#FCFCFD"/>
<g filter="url(#filter1_d_5555_2555)">
<path d="M281 580H420C496.768 580 559 642.232 559 719C559 795.768 496.768 858 420 858C343.232 858 281 795.768 281 719V580Z" fill="#511A75"/>
<rect x="386" y="644" width="68" height="68" rx="34" fill="#794D94"/>
<path d="M438.068 673.12C437.788 672.631 437.383 672.225 436.895 671.943C436.407 671.661 435.853 671.512 435.289 671.513C434.725 671.514 434.172 671.663 433.684 671.947C433.197 672.23 432.793 672.637 432.514 673.127C430.856 675.706 429.15 678.267 427.516 680.854C426.905 681.917 425.908 682.702 424.732 683.047C422.401 683.762 419.658 684.614 417.018 685.57C416.792 685.667 416.542 685.699 416.298 685.662C416.054 685.626 415.825 685.522 415.637 685.364C415.473 685.207 415.356 685.007 415.301 684.787C415.246 684.567 415.254 684.336 415.325 684.121C415.395 683.905 415.525 683.714 415.699 683.569C415.874 683.424 416.085 683.331 416.31 683.301C418.626 682.495 421.032 681.686 423.316 680.875C425.66 680.3 426.167 677.021 424.03 675.884C423.718 675.686 423.365 675.56 422.997 675.516C422.63 675.472 422.257 675.511 421.906 675.629C419.23 676.428 416.596 677.238 413.904 678.036C409.75 679.219 406.059 679.882 404.472 684.47C403.557 687.189 402.616 690.066 401.661 692.788C401.601 692.962 401.613 693.151 401.692 693.316C401.772 693.481 401.914 693.608 402.087 693.668L412.241 697.209C412.399 697.265 412.573 697.261 412.729 697.197C412.884 697.134 413.012 697.016 413.086 696.865C413.273 696.56 413.52 696.296 413.812 696.089C414.104 695.882 414.434 695.737 414.784 695.662C418.822 694.24 423.037 692.745 427.11 691.352C428.918 690.768 430.428 689.506 431.324 687.832C432.741 685.295 434.212 682.745 435.635 680.27C436.623 678.132 439.283 675.49 438.068 673.12Z" fill="#FCFCFD"/>
<path d="M410.59 677.575C413.035 676.874 415.495 676.116 417.925 675.396C419.605 674.966 420.979 674.264 422.765 674.117C423.432 674.141 424.084 674.324 424.666 674.65C425.248 674.977 425.744 675.437 426.113 675.994C426.75 675.473 427.358 674.918 427.935 674.33C429.516 672.728 431.379 670.13 431.289 666.871C431.229 664.74 430.355 662.712 428.847 661.204C427.338 659.697 425.309 658.824 423.177 658.766C421.086 658.671 419.037 659.38 417.451 660.746C417.303 660.908 417.307 660.87 417.148 660.725C415.94 659.694 414.459 659.031 412.884 658.818C411.309 658.605 409.706 658.849 408.266 659.522C406.83 660.137 405.602 661.153 404.728 662.448C403.853 663.742 403.371 665.261 403.337 666.823C403.082 671.092 406.901 675.126 410.59 677.575Z" fill="#FCFCFD"/>
<path d="M380.758 742.32L375.814 759H372.718L369.214 746.376L365.494 759L362.422 759.024L357.694 742.32H360.598L364.054 755.904L367.798 742.32H370.87L374.35 755.832L377.83 742.32H380.758ZM388.271 759.216C387.023 759.216 385.895 758.936 384.887 758.376C383.879 757.8 383.087 757 382.511 755.976C381.935 754.936 381.647 753.736 381.647 752.376C381.647 751.032 381.943 749.84 382.535 748.8C383.127 747.76 383.935 746.96 384.959 746.4C385.983 745.84 387.127 745.56 388.391 745.56C389.655 745.56 390.799 745.84 391.823 746.4C392.847 746.96 393.655 747.76 394.247 748.8C394.839 749.84 395.135 751.032 395.135 752.376C395.135 753.72 394.831 754.912 394.223 755.952C393.615 756.992 392.783 757.8 391.727 758.376C390.687 758.936 389.535 759.216 388.271 759.216ZM388.271 756.84C388.975 756.84 389.631 756.672 390.239 756.336C390.863 756 391.367 755.496 391.751 754.824C392.135 754.152 392.327 753.336 392.327 752.376C392.327 751.416 392.143 750.608 391.775 749.952C391.407 749.28 390.919 748.776 390.311 748.44C389.703 748.104 389.047 747.936 388.343 747.936C387.639 747.936 386.983 748.104 386.375 748.44C385.783 748.776 385.311 749.28 384.959 749.952C384.607 750.608 384.431 751.416 384.431 752.376C384.431 753.8 384.791 754.904 385.511 755.688C386.247 756.456 387.167 756.84 388.271 756.84ZM400.095 747.696C400.495 747.024 401.023 746.504 401.679 746.136C402.351 745.752 403.143 745.56 404.055 745.56V748.392H403.359C402.287 748.392 401.471 748.664 400.911 749.208C400.367 749.752 400.095 750.696 400.095 752.04V759H397.359V745.776H400.095V747.696ZM411.322 752.4L417.418 759H413.722L408.826 753.312V759H406.09V741.24H408.826V751.56L413.626 745.776H417.418L411.322 752.4ZM421.635 747.72C422.099 747.112 422.731 746.6 423.531 746.184C424.331 745.768 425.235 745.56 426.243 745.56C427.395 745.56 428.443 745.848 429.387 746.424C430.347 746.984 431.099 747.776 431.643 748.8C432.187 749.824 432.459 751 432.459 752.328C432.459 753.656 432.187 754.848 431.643 755.904C431.099 756.944 430.347 757.76 429.387 758.352C428.443 758.928 427.395 759.216 426.243 759.216C425.235 759.216 424.339 759.016 423.555 758.616C422.771 758.2 422.131 757.688 421.635 757.08V765.288H418.899V745.776H421.635V747.72ZM429.675 752.328C429.675 751.416 429.483 750.632 429.099 749.976C428.731 749.304 428.235 748.8 427.611 748.464C427.003 748.112 426.347 747.936 425.643 747.936C424.955 747.936 424.299 748.112 423.675 748.464C423.067 748.816 422.571 749.328 422.187 750C421.819 750.672 421.635 751.464 421.635 752.376C421.635 753.288 421.819 754.088 422.187 754.776C422.571 755.448 423.067 755.96 423.675 756.312C424.299 756.664 424.955 756.84 425.643 756.84C426.347 756.84 427.003 756.664 427.611 756.312C428.235 755.944 428.731 755.416 429.099 754.728C429.483 754.04 429.675 753.24 429.675 752.328ZM437.421 741.24V759H434.685V741.24H437.421ZM439.621 752.328C439.621 751 439.893 749.824 440.437 748.8C440.997 747.776 441.749 746.984 442.693 746.424C443.653 745.848 444.709 745.56 445.861 745.56C446.901 745.56 447.805 745.768 448.573 746.184C449.357 746.584 449.981 747.088 450.445 747.696V745.776H453.205V759H450.445V757.032C449.981 757.656 449.349 758.176 448.549 758.592C447.749 759.008 446.837 759.216 445.813 759.216C444.677 759.216 443.637 758.928 442.693 758.352C441.749 757.76 440.997 756.944 440.437 755.904C439.893 754.848 439.621 753.656 439.621 752.328ZM450.445 752.376C450.445 751.464 450.253 750.672 449.869 750C449.501 749.328 449.013 748.816 448.405 748.464C447.797 748.112 447.141 747.936 446.437 747.936C445.733 747.936 445.077 748.112 444.469 748.464C443.861 748.8 443.365 749.304 442.981 749.976C442.613 750.632 442.429 751.416 442.429 752.328C442.429 753.24 442.613 754.04 442.981 754.728C443.365 755.416 443.861 755.944 444.469 756.312C445.093 756.664 445.749 756.84 446.437 756.84C447.141 756.84 447.797 756.664 448.405 756.312C449.013 755.96 449.501 755.448 449.869 754.776C450.253 754.088 450.445 753.288 450.445 752.376ZM455.407 752.376C455.407 751.016 455.679 749.824 456.223 748.8C456.783 747.76 457.551 746.96 458.527 746.4C459.503 745.84 460.623 745.56 461.887 745.56C463.487 745.56 464.807 745.944 465.847 746.712C466.903 747.464 467.615 748.544 467.983 749.952H465.031C464.791 749.296 464.407 748.784 463.879 748.416C463.351 748.048 462.687 747.864 461.887 747.864C460.767 747.864 459.871 748.264 459.199 749.064C458.543 749.848 458.215 750.952 458.215 752.376C458.215 753.8 458.543 754.912 459.199 755.712C459.871 756.512 460.767 756.912 461.887 756.912C463.471 756.912 464.519 756.216 465.031 754.824H467.983C467.599 756.168 466.879 757.24 465.823 758.04C464.767 758.824 463.455 759.216 461.887 759.216C460.623 759.216 459.503 758.936 458.527 758.376C457.551 757.8 456.783 757 456.223 755.976C455.679 754.936 455.407 753.736 455.407 752.376ZM482.349 752.064C482.349 752.56 482.317 753.008 482.253 753.408H472.149C472.229 754.464 472.621 755.312 473.325 755.952C474.029 756.592 474.893 756.912 475.917 756.912C477.389 756.912 478.429 756.296 479.037 755.064H481.989C481.589 756.28 480.861 757.28 479.805 758.064C478.765 758.832 477.469 759.216 475.917 759.216C474.653 759.216 473.517 758.936 472.509 758.376C471.517 757.8 470.733 757 470.157 755.976C469.597 754.936 469.317 753.736 469.317 752.376C469.317 751.016 469.589 749.824 470.133 748.8C470.693 747.76 471.469 746.96 472.461 746.4C473.469 745.84 474.621 745.56 475.917 745.56C477.165 745.56 478.277 745.832 479.253 746.376C480.229 746.92 480.989 747.688 481.533 748.68C482.077 749.656 482.349 750.784 482.349 752.064ZM479.493 751.2C479.477 750.192 479.117 749.384 478.413 748.776C477.709 748.168 476.837 747.864 475.797 747.864C474.853 747.864 474.045 748.168 473.373 748.776C472.701 749.368 472.301 750.176 472.173 751.2H479.493ZM385.088 771.32L380.144 788H377.048L373.544 775.376L369.824 788L366.752 788.024L362.024 771.32H364.928L368.384 784.904L372.128 771.32H375.2L378.68 784.832L382.16 771.32H385.088ZM398.985 781.064C398.985 781.56 398.953 782.008 398.889 782.408H388.785C388.865 783.464 389.257 784.312 389.961 784.952C390.665 785.592 391.529 785.912 392.553 785.912C394.025 785.912 395.065 785.296 395.673 784.064H398.625C398.225 785.28 397.497 786.28 396.441 787.064C395.401 787.832 394.105 788.216 392.553 788.216C391.289 788.216 390.153 787.936 389.145 787.376C388.153 786.8 387.369 786 386.793 784.976C386.233 783.936 385.953 782.736 385.953 781.376C385.953 780.016 386.225 778.824 386.769 777.8C387.329 776.76 388.105 775.96 389.097 775.4C390.105 774.84 391.257 774.56 392.553 774.56C393.801 774.56 394.913 774.832 395.889 775.376C396.865 775.92 397.625 776.688 398.169 777.68C398.713 778.656 398.985 779.784 398.985 781.064ZM396.129 780.2C396.113 779.192 395.753 778.384 395.049 777.776C394.345 777.168 393.473 776.864 392.433 776.864C391.489 776.864 390.681 777.168 390.009 777.776C389.337 778.368 388.937 779.176 388.809 780.2H396.129ZM403.933 770.24V788H401.197V770.24H403.933ZM409.782 770.24V788H407.046V770.24H409.782ZM415.63 776.744C416.094 776.104 416.726 775.584 417.526 775.184C418.342 774.768 419.246 774.56 420.238 774.56C421.406 774.56 422.462 774.84 423.406 775.4C424.35 775.96 425.094 776.76 425.638 777.8C426.182 778.824 426.454 780 426.454 781.328C426.454 782.656 426.182 783.848 425.638 784.904C425.094 785.944 424.342 786.76 423.382 787.352C422.438 787.928 421.39 788.216 420.238 788.216C419.214 788.216 418.302 788.016 417.502 787.616C416.718 787.216 416.094 786.704 415.63 786.08V788H412.894V770.24H415.63V776.744ZM423.67 781.328C423.67 780.416 423.478 779.632 423.094 778.976C422.726 778.304 422.23 777.8 421.606 777.464C420.998 777.112 420.342 776.936 419.638 776.936C418.95 776.936 418.294 777.112 417.67 777.464C417.062 777.816 416.566 778.328 416.182 779C415.814 779.672 415.63 780.464 415.63 781.376C415.63 782.288 415.814 783.088 416.182 783.776C416.566 784.448 417.062 784.96 417.67 785.312C418.294 785.664 418.95 785.84 419.638 785.84C420.342 785.84 420.998 785.664 421.606 785.312C422.23 784.944 422.726 784.416 423.094 783.728C423.478 783.04 423.67 782.24 423.67 781.328ZM440.799 781.064C440.799 781.56 440.767 782.008 440.703 782.408H430.599C430.679 783.464 431.071 784.312 431.775 784.952C432.479 785.592 433.343 785.912 434.367 785.912C435.839 785.912 436.879 785.296 437.487 784.064H440.439C440.039 785.28 439.311 786.28 438.255 787.064C437.215 787.832 435.919 788.216 434.367 788.216C433.103 788.216 431.967 787.936 430.959 787.376C429.967 786.8 429.183 786 428.607 784.976C428.047 783.936 427.767 782.736 427.767 781.376C427.767 780.016 428.039 778.824 428.583 777.8C429.143 776.76 429.919 775.96 430.911 775.4C431.919 774.84 433.071 774.56 434.367 774.56C435.615 774.56 436.727 774.832 437.703 775.376C438.679 775.92 439.439 776.688 439.983 777.68C440.527 778.656 440.799 779.784 440.799 781.064ZM437.943 780.2C437.927 779.192 437.567 778.384 436.863 777.776C436.159 777.168 435.287 776.864 434.247 776.864C433.303 776.864 432.495 777.168 431.823 777.776C431.151 778.368 430.751 779.176 430.623 780.2H437.943ZM444.404 773.024C443.908 773.024 443.492 772.856 443.156 772.52C442.82 772.184 442.652 771.768 442.652 771.272C442.652 770.776 442.82 770.36 443.156 770.024C443.492 769.688 443.908 769.52 444.404 769.52C444.884 769.52 445.292 769.688 445.628 770.024C445.964 770.36 446.132 770.776 446.132 771.272C446.132 771.768 445.964 772.184 445.628 772.52C445.292 772.856 444.884 773.024 444.404 773.024ZM445.748 774.776V788H443.012V774.776H445.748ZM455.532 774.56C456.572 774.56 457.5 774.776 458.316 775.208C459.148 775.64 459.796 776.28 460.26 777.128C460.724 777.976 460.956 779 460.956 780.2V788H458.244V780.608C458.244 779.424 457.948 778.52 457.356 777.896C456.764 777.256 455.956 776.936 454.932 776.936C453.908 776.936 453.092 777.256 452.484 777.896C451.892 778.52 451.596 779.424 451.596 780.608V788H448.86V774.776H451.596V776.288C452.044 775.744 452.612 775.32 453.3 775.016C454.004 774.712 454.748 774.56 455.532 774.56ZM469.294 774.56C470.318 774.56 471.222 774.768 472.006 775.184C472.806 775.584 473.43 776.088 473.878 776.696V774.776H476.638V788.216C476.638 789.432 476.382 790.512 475.87 791.456C475.358 792.416 474.614 793.168 473.638 793.712C472.678 794.256 471.526 794.528 470.182 794.528C468.39 794.528 466.902 794.104 465.718 793.256C464.534 792.424 463.862 791.288 463.702 789.848H466.414C466.622 790.536 467.062 791.088 467.734 791.504C468.422 791.936 469.238 792.152 470.182 792.152C471.286 792.152 472.174 791.816 472.846 791.144C473.534 790.472 473.878 789.496 473.878 788.216V786.008C473.414 786.632 472.782 787.16 471.982 787.592C471.198 788.008 470.302 788.216 469.294 788.216C468.142 788.216 467.086 787.928 466.126 787.352C465.182 786.76 464.43 785.944 463.87 784.904C463.326 783.848 463.054 782.656 463.054 781.328C463.054 780 463.326 778.824 463.87 777.8C464.43 776.776 465.182 775.984 466.126 775.424C467.086 774.848 468.142 774.56 469.294 774.56ZM473.878 781.376C473.878 780.464 473.686 779.672 473.302 779C472.934 778.328 472.446 777.816 471.838 777.464C471.23 777.112 470.574 776.936 469.87 776.936C469.166 776.936 468.51 777.112 467.902 777.464C467.294 777.8 466.798 778.304 466.414 778.976C466.046 779.632 465.862 780.416 465.862 781.328C465.862 782.24 466.046 783.04 466.414 783.728C466.798 784.416 467.294 784.944 467.902 785.312C468.526 785.664 469.182 785.84 469.87 785.84C470.574 785.84 471.23 785.664 471.838 785.312C472.446 784.96 472.934 784.448 473.302 783.776C473.686 783.088 473.878 782.288 473.878 781.376Z" fill="#FCFCFD"/>
</g>
<circle cx="644.729" cy="725" r="6" fill="#FF634A"/>
<circle cx="145" cy="199" r="6" fill="#511A75"/>
<circle cx="667.48" cy="218" r="6" fill="#511A75"/>
<circle cx="78" cy="619.41" r="6" fill="#511A75"/>
<circle cx="448" cy="504" r="6" fill="#511A75"/>
<circle cx="213.908" cy="613.41" r="6" fill="#FF634A"/>
<circle cx="357.959" cy="407" r="6" fill="#FF634A"/>
<circle cx="399" cy="459" r="1" fill="#6E7381"/>
<defs>
<filter id="filter0_d_5555_2555" x="154" y="0" width="438" height="438" filterUnits="userSpaceOnUse" color-interpolation-filters="sRGB">
<feFlood flood-opacity="0" result="BackgroundImageFix"/>
<feColorMatrix in="SourceAlpha" type="matrix" values="0 0 0 0 0 0 0 0 0 0 0 0 0 0 0 0 0 0 127 0" result="hardAlpha"/>
<feMorphology radius="20" operator="erode" in="SourceAlpha" result="effect1_dropShadow_5555_2555"/>
<feOffset dy="20"/>
<feGaussianBlur stdDeviation="50"/>
<feComposite in2="hardAlpha" operator="out"/>
<feColorMatrix type="matrix" values="0 0 0 0 0 0 0 0 0 0 0 0 0 0 0 0 0 0 0.1 0"/>
<feBlend mode="normal" in2="BackgroundImageFix" result="effect1_dropShadow_5555_2555"/>
<feBlend mode="normal" in="SourceGraphic" in2="effect1_dropShadow_5555_2555" result="shape"/>
</filter>
<filter id="filter1_d_5555_2555" x="201" y="520" width="438" height="438" filterUnits="userSpaceOnUse" color-interpolation-filters="sRGB">
<feFlood flood-opacity="0" result="BackgroundImageFix"/>
<feColorMatrix in="SourceAlpha" type="matrix" values="0 0 0 0 0 0 0 0 0 0 0 0 0 0 0 0 0 0 127 0" result="hardAlpha"/>
<feMorphology radius="20" operator="erode" in="SourceAlpha" result="effect1_dropShadow_5555_2555"/>
<feOffset dy="20"/>
<feGaussianBlur stdDeviation="50"/>
<feComposite in2="hardAlpha" operator="out"/>
<feColorMatrix type="matrix" values="0 0 0 0 0 0 0 0 0 0 0 0 0 0 0 0 0 0 0.1 0"/>
<feBlend mode="normal" in2="BackgroundImageFix" result="effect1_dropShadow_5555_2555"/>
<feBlend mode="normal" in="SourceGraphic" in2="effect1_dropShadow_5555_2555" result="shape"/>
</filter>
<clipPath id="clip0_5555_2555">
<rect width="44" height="44" fill="white" transform="translate(117 338)"/>
</clipPath>
</defs>
</svg>
