<svg width="36" height="36" viewBox="0 0 24 24" fill="none" xmlns="http://www.w3.org/2000/svg">
<path d="M22.4026 4.80023C22.4026 3.67523 21.4877 2.76025 20.3627 2.76025H18.2176V4.77025C18.2176 5.19025 17.8802 5.52025 17.4676 5.52025C17.0551 5.52025 16.7176 5.19025 16.7176 4.77025V2.76025H7.28267V4.77025C7.28267 5.19025 6.94516 5.52025 6.53267 5.52025C6.12013 5.52025 5.78267 5.19025 5.78267 4.77025V2.76025H3.63763C2.51263 2.76025 1.59766 3.67523 1.59766 4.80023V6.63023H22.4026V4.80023Z" fill="currentColor"/>
<path d="M22.4026 8.12988H1.59766V17.6924C1.59766 18.8174 2.51263 19.7249 3.63763 19.7249H4.65016C4.74767 17.5949 5.75264 15.6599 7.35014 14.3699C7.25264 13.9874 7.20013 13.5824 7.20013 13.1774C7.20013 10.5224 9.35263 8.36989 12.0002 8.36989C14.6477 8.36989 16.8002 10.5224 16.8002 13.1774C16.8002 13.5824 16.7477 13.9874 16.6502 14.3699C18.2477 15.6599 19.2526 17.5949 19.3501 19.7249H20.3627C21.4877 19.7249 22.4026 18.8174 22.4026 17.6924V8.12988Z" fill="currentColor"/>
<path d="M7.2832 2.25C7.2832 1.83751 6.94569 1.5 6.5332 1.5C6.12067 1.5 5.7832 1.83751 5.7832 2.25V2.75999H7.2832V2.25Z" fill="currentColor"/>
<path d="M18.2168 2.25C18.2168 1.83751 17.8793 1.5 17.4668 1.5C17.0543 1.5 16.7168 1.83751 16.7168 2.25V2.75999H18.2168V2.25Z" fill="currentColor"/>
<path d="M6.13477 20.0926C6.13477 21.4201 7.21477 22.5001 8.54228 22.5001H15.4573C16.7848 22.5001 17.8648 21.4201 17.8648 20.0926C17.8648 17.8951 16.6647 15.9376 14.7897 14.9326C15.1198 14.4151 15.2998 13.8076 15.2998 13.1776C15.2998 11.3551 13.8223 9.87012 11.9998 9.87012C10.1773 9.87012 8.69975 11.3551 8.69975 13.1776C8.69975 13.8076 8.87979 14.4151 9.20979 14.9326C7.33479 15.9376 6.13477 17.8951 6.13477 20.0926ZM9.96725 18.0751C10.2598 17.7826 10.7398 17.7826 11.0323 18.0751L11.5873 18.6301L12.9673 17.2501C13.2598 16.9576 13.7398 16.9576 14.0323 17.2501C14.3248 17.5426 14.3248 18.0226 14.0323 18.3151L12.1198 20.2276C11.9698 20.3701 11.7823 20.4451 11.5873 20.4451C11.3923 20.4451 11.2048 20.3701 11.0548 20.2276L9.96725 19.1401C9.67479 18.8401 9.67479 18.3676 9.96725 18.0751Z" fill="currentColor"/>
</svg>
